<?xml version="1.0" encoding="utf-8"?>
<!-- Generator: Adobe Illustrator 23.0.3, SVG Export Plug-In . SVG Version: 6.00 Build 0)  -->
<svg version="1.1" xmlns="http://www.w3.org/2000/svg" xmlns:xlink="http://www.w3.org/1999/xlink" x="0px" y="0px"
	 viewBox="0 0 93.72 30.27" style="enable-background:new 0 0 93.72 30.27;" xml:space="preserve">
<style type="text/css">
	.st0{fill:#020203;}
	.st1{fill:url(#SVGID_1_);}
	.st2{filter:url(#Adobe_OpacityMaskFilter);}
	.st3{opacity:0.75;mask:url(#SVGID_2_);}
	.st4{fill:#979697;}
	.st5{fill:url(#SVGID_3_);}
	.st6{filter:url(#Adobe_OpacityMaskFilter_1_);}
	.st7{opacity:0.75;mask:url(#SVGID_4_);}
	.st8{fill:#555454;}
	.st9{fill:none;}
	.st10{fill:url(#SVGID_5_);}
	.st11{fill:url(#SVGID_6_);}
	.st12{fill:url(#SVGID_7_);}
	.st13{fill:url(#SVGID_8_);}
	.st14{fill:url(#SVGID_9_);}
	.st15{fill:url(#SVGID_10_);}
	.st16{fill:url(#SVGID_11_);}
	.st17{fill:url(#SVGID_12_);}
	.st18{fill:url(#SVGID_13_);}
	.st19{fill:url(#SVGID_14_);}
	.st20{fill:url(#SVGID_15_);}
	.st21{fill:url(#SVGID_16_);}
	.st22{clip-path:url(#XMLID_68_);}
	.st23{fill:url(#SVGID_17_);}
	.st24{fill:url(#SVGID_18_);}
	.st25{fill:url(#SVGID_19_);}
	.st26{fill:url(#SVGID_20_);}
	.st27{fill:url(#SVGID_21_);}
	.st28{fill:url(#SVGID_22_);}
	.st29{fill:url(#SVGID_23_);}
	.st30{fill:#FFFFFF;}
	.st31{opacity:0.5;}
	.st32{opacity:0.5;fill:#FFFFFF;}
	.st33{fill:#B3B2B2;}
	.st34{fill:url(#SVGID_24_);}
	.st35{fill:#362355;}
	.st36{fill:url(#SVGID_25_);}
	.st37{opacity:0.33;}
	.st38{fill:#9E9D9C;}
	.st39{fill:none;stroke:#FFFFFF;stroke-width:0.4359;stroke-miterlimit:10;stroke-dasharray:1.7434;}
	.st40{opacity:0.4;fill:url(#SVGID_26_);}
	.st41{opacity:0.48;fill:url(#SVGID_27_);}
	.st42{fill:url(#SVGID_28_);}
	.st43{fill:url(#SVGID_29_);}
	.st44{opacity:0.64;fill:#FFFFFF;}
	.st45{opacity:0.4;fill:url(#SVGID_30_);}
	.st46{opacity:0.48;fill:url(#SVGID_31_);}
	.st47{fill:url(#SVGID_32_);}
	.st48{opacity:0.4;fill:url(#SVGID_33_);}
	.st49{opacity:0.48;fill:url(#SVGID_34_);}
	.st50{fill:url(#SVGID_35_);}
	.st51{opacity:0.4;fill:#B3B2B2;}
	.st52{opacity:0.48;fill:#B3B2B2;}
	.st53{fill-rule:evenodd;clip-rule:evenodd;fill:#FFFFFF;}
	.st54{fill:#1B1B1D;}
	.st55{fill:#0C0F0F;}
	.st56{clip-path:url(#SVGID_37_);}
	.st57{fill:url(#SVGID_38_);}
	.st58{fill:url(#SVGID_39_);}
	.st59{fill:url(#SVGID_40_);}
	.st60{fill:url(#SVGID_41_);}
	.st61{opacity:0.5;fill:#9D9C9D;}
	.st62{fill:url(#SVGID_42_);}
	.st63{fill:url(#SVGID_43_);}
	.st64{fill:url(#SVGID_44_);}
	.st65{fill:url(#SVGID_45_);}
	.st66{filter:url(#Adobe_OpacityMaskFilter_2_);}
	.st67{fill:url(#SVGID_47_);}
	.st68{opacity:0.4;mask:url(#SVGID_46_);fill:url(#SVGID_48_);}
	.st69{filter:url(#Adobe_OpacityMaskFilter_3_);}
	.st70{fill:url(#SVGID_50_);}
	.st71{opacity:0.4;mask:url(#SVGID_49_);fill:url(#SVGID_51_);}
	.st72{filter:url(#Adobe_OpacityMaskFilter_4_);}
	.st73{fill:url(#SVGID_53_);}
	.st74{opacity:0.4;mask:url(#SVGID_52_);fill:url(#SVGID_54_);}
	.st75{filter:url(#Adobe_OpacityMaskFilter_5_);}
	.st76{fill:url(#SVGID_56_);}
	.st77{opacity:0.4;mask:url(#SVGID_55_);fill:url(#SVGID_57_);}
	.st78{fill:#FDFDF5;}
	.st79{fill-rule:evenodd;clip-rule:evenodd;fill:#FDFDF5;}
	.st80{opacity:0.4;fill:#FDFDF5;}
	.st81{fill:#F6F6F6;}
	.st82{fill:url(#SVGID_58_);}
	.st83{fill:#151420;}
	.st84{fill:#EB5A48;}
	.st85{fill-rule:evenodd;clip-rule:evenodd;fill:#882322;}
	.st86{fill-rule:evenodd;clip-rule:evenodd;fill:#EB5A48;}
	.st87{fill:#F2F4F9;}
	.st88{opacity:0.49;}
	.st89{clip-path:url(#SVGID_60_);}
	.st90{clip-path:url(#SVGID_64_);}
	.st91{fill:#353544;}
	.st92{fill:url(#SVGID_67_);}
	.st93{clip-path:url(#XMLID_314_);}
	.st94{clip-path:url(#XMLID_322_);}
	.st95{fill:#A6A6A6;}
	.st96{fill:#FAFAFA;}
	.st97{fill-rule:evenodd;clip-rule:evenodd;fill:#020203;}
	.st98{opacity:0.4;fill:#020203;}
	.st99{clip-path:url(#XMLID_323_);}
	.st100{fill-rule:evenodd;clip-rule:evenodd;fill:#575756;}
	.st101{fill-rule:evenodd;clip-rule:evenodd;fill:url(#SVGID_74_);}
	.st102{fill-rule:evenodd;clip-rule:evenodd;fill:url(#SVGID_75_);}
	.st103{fill-rule:evenodd;clip-rule:evenodd;fill:#7F5F14;}
	.st104{fill-rule:evenodd;clip-rule:evenodd;fill:url(#SVGID_76_);}
	.st105{fill-rule:evenodd;clip-rule:evenodd;fill:#6CB53B;}
	.st106{opacity:0.13;fill:none;stroke:#151420;stroke-width:0.3594;stroke-miterlimit:10;}
	.st107{opacity:0.46;}
	.st108{opacity:0.12;fill:none;stroke:#151420;stroke-width:0.5011;stroke-miterlimit:10;}
	.st109{opacity:0.12;fill:none;stroke:#151420;stroke-width:0.5376;stroke-miterlimit:10;}
	.st110{clip-path:url(#SVGID_78_);}
	.st111{clip-path:url(#SVGID_82_);}
	.st112{fill:#D44237;}
	.st113{opacity:0.3;fill:#FFFFFF;}
	.st114{opacity:0.2;fill:#E94B4E;}
	.st115{opacity:0.5;fill:#E94B4E;}
	.st116{fill:#E94B4E;}
	.st117{fill:#596F8A;}
	.st118{clip-path:url(#XMLID_326_);fill:url(#SVGID_85_);}
	.st119{fill:url(#SVGID_86_);}
	.st120{fill:#393947;}
	.st121{clip-path:url(#XMLID_328_);fill:url(#SVGID_87_);}
	.st122{fill:url(#SVGID_88_);}
	.st123{fill-rule:evenodd;clip-rule:evenodd;fill:#BF9B07;}
	.st124{fill-rule:evenodd;clip-rule:evenodd;fill:#FFDD08;}
	.st125{fill:#1E1E1C;}
	.st126{opacity:0.35;}
	.st127{fill:#B2B2B2;}
	.st128{fill:#37374C;}
	.st129{opacity:0.56;}
	.st130{clip-path:url(#SVGID_90_);}
	.st131{clip-path:url(#SVGID_94_);}
	.st132{opacity:0.13;fill:none;stroke:#151420;stroke-width:0.4628;stroke-miterlimit:10;}
	.st133{clip-path:url(#XMLID_334_);}
	.st134{opacity:0.13;fill:#FFFFFF;stroke:#FFFFFF;stroke-width:0.4628;stroke-miterlimit:10;}
	.st135{opacity:0.13;fill:none;stroke:#FFFFFF;stroke-width:0.4628;stroke-miterlimit:10;}
	.st136{fill:#CE5A4A;}
	.st137{fill-rule:evenodd;clip-rule:evenodd;fill:#4F6832;}
	.st138{fill-rule:evenodd;clip-rule:evenodd;fill:#85B448;}
	.st139{fill:#1B1B25;}
	.st140{fill:#3A3A4C;}
	.st141{fill:#7B8AA1;}
	.st142{fill:#A3ABBF;}
	.st143{fill:#E2E4EB;}
	.st144{fill:#545F74;}
	.st145{fill:#606E87;}
	.st146{fill:#CB4C4F;}
	.st147{fill:#EFEFEE;}
	.st148{fill:#EDEDEC;}
	.st149{clip-path:url(#SVGID_98_);}
	.st150{clip-path:url(#SVGID_102_);}
	.st151{fill:url(#SVGID_107_);}
	.st152{clip-path:url(#SVGID_109_);}
	.st153{clip-path:url(#SVGID_113_);}
	.st154{fill:url(#SVGID_116_);}
	.st155{fill:none;stroke:#8E8F94;stroke-width:0.2271;stroke-miterlimit:10;}
	.st156{clip-path:url(#SVGID_118_);}
	.st157{clip-path:url(#SVGID_122_);}
	.st158{fill:url(#SVGID_125_);}
	.st159{fill:url(#SVGID_126_);}
	.st160{fill:url(#SVGID_127_);}
	.st161{fill:url(#SVGID_128_);}
	.st162{fill:url(#SVGID_129_);}
	.st163{clip-path:url(#SVGID_131_);}
	.st164{clip-path:url(#SVGID_135_);}
	.st165{fill:#A2A1A3;}
	.st166{fill:#DDDDDB;}
	.st167{fill:#F28A1A;}
	.st168{fill:#9F99CB;}
	.st169{fill:#8982BD;}
	.st170{fill:#F5F5F5;}
	.st171{fill:#D7D8D8;}
	.st172{fill:#CDCFCF;}
	.st173{fill:#5C5159;}
	.st174{fill:#6F656C;}
	.st175{fill:#A2A19F;}
	.st176{fill:#E9E9E9;}
	.st177{fill:#5E5752;}
	.st178{fill:#D9DBDB;}
	.st179{fill:url(#SVGID_138_);}
	.st180{fill:#414046;}
	.st181{fill:url(#SVGID_139_);}
	.st182{fill:url(#SVGID_140_);}
	.st183{fill:#DFDEDE;}
	.st184{fill:url(#SVGID_141_);}
	.st185{fill:url(#SVGID_142_);}
	.st186{fill:url(#SVGID_143_);}
	.st187{fill:#253030;}
	.st188{fill:#A0CEEE;}
	.st189{fill:#3B80C1;}
	.st190{fill:#71A6DA;}
	.st191{fill:#43555F;}
	.st192{fill:#31313A;}
	.st193{fill:#6A6067;}
	.st194{fill:#898287;}
	.st195{fill:#23151E;}
	.st196{fill:#ACACAF;}
	.st197{fill:#141414;}
	.st198{fill:#3F3F3F;}
	.st199{fill:#010202;}
	.st200{fill:#63636A;}
	.st201{fill:#FCFCF2;}
	.st202{fill:#FFFAF4;}
	.st203{fill:#FFEFD8;}
	.st204{fill:#8C8C8C;}
	.st205{fill:#616269;}
	.st206{fill:#797A80;}
	.st207{fill:#4A4A52;}
	.st208{fill:#A6A6AA;}
	.st209{fill:#515152;}
	.st210{fill:#B9B8BC;}
	.st211{fill:#131315;}
	.st212{fill:#3D3D3F;}
	.st213{fill:#727274;}
	.st214{fill:#E1E1E1;}
	.st215{fill:#E6D0B4;}
	.st216{fill:url(#SVGID_144_);}
	.st217{fill:#474747;}
	.st218{fill:#A2896E;}
	.st219{fill:#D9CEBC;}
	.st220{fill:#6B4424;}
	.st221{fill:#C9AE94;}
	.st222{fill:#C7AE96;}
	.st223{fill:#F7F6F3;}
	.st224{fill:#846E57;}
	.st225{fill:#C1E0F4;}
	.st226{fill:#96C2DF;}
	.st227{fill:#88B7D7;}
	.st228{fill:#B6DBF3;}
	.st229{fill:#73A6C9;}
	.st230{fill:#A0A4A4;}
	.st231{fill:#8F9494;}
	.st232{fill:#F9F5F5;}
	.st233{fill:#D5E1EF;}
	.st234{fill:#BBB9B5;}
	.st235{fill:#95928B;}
	.st236{fill:#CDCCC9;}
	.st237{fill:#F0F0F0;}
	.st238{fill:#F59E25;}
	.st239{fill:url(#SVGID_145_);}
	.st240{fill:#C1C4C3;}
	.st241{fill:url(#SVGID_146_);}
	.st242{fill:#928E90;}
	.st243{fill:#EAE9E8;}
	.st244{fill:#FBFBFB;}
	.st245{fill:#6C6C69;}
	.st246{fill:#08080C;}
	.st247{fill:#999999;}
	.st248{fill:#666666;}
	.st249{fill:url(#SVGID_147_);}
	.st250{fill:#DAAF84;}
	.st251{fill:#FCFAF2;}
	.st252{fill:#C2C0C1;}
	.st253{fill:url(#SVGID_148_);}
	.st254{fill:#BDBAB8;}
	.st255{fill:#CFCDCB;}
	.st256{fill:#E7E6E6;}
	.st257{fill:#8A847E;}
	.st258{fill:#CADADA;}
	.st259{fill:#E5ECEC;}
	.st260{fill:#9DA8AD;}
	.st261{fill:#222222;}
	.st262{fill:#5D706A;}
	.st263{fill:#535353;}
	.st264{fill:#D5D5D4;}
	.st265{fill:#85868B;}
	.st266{opacity:0.7;fill:none;stroke:#797979;stroke-width:0.25;stroke-miterlimit:10;stroke-dasharray:2;}
	.st267{fill:none;stroke:#797979;stroke-width:0.25;stroke-miterlimit:10;stroke-dasharray:2;}
	.st268{fill:url(#SVGID_149_);}
	.st269{clip-path:url(#SVGID_151_);}
	.st270{clip-path:url(#SVGID_155_);}
	.st271{fill:#CE1327;}
	.st272{fill:#4D5F76;}
	.st273{fill:#EEEDED;}
	.st274{fill:#748BA4;}
	.st275{fill:#A1ADC1;}
	.st276{fill:#E2E5EC;}
	.st277{clip-path:url(#SVGID_159_);}
	.st278{clip-path:url(#SVGID_163_);}
	.st279{clip-path:url(#SVGID_167_);}
	.st280{clip-path:url(#SVGID_171_);}
	.st281{fill:#E94F1D;}
	.st282{clip-path:url(#SVGID_175_);}
	.st283{clip-path:url(#SVGID_179_);}
	.st284{fill-rule:evenodd;clip-rule:evenodd;fill:#353544;}
	.st285{clip-path:url(#XMLID_348_);fill:url(#SVGID_182_);}
	.st286{fill:url(#SVGID_183_);}
	.st287{opacity:0.12;fill:none;stroke:#151420;stroke-width:0.4119;stroke-miterlimit:10;}
	.st288{opacity:0.12;fill:none;stroke:#151420;stroke-width:0.4419;stroke-miterlimit:10;}
	.st289{clip-path:url(#SVGID_185_);}
	.st290{clip-path:url(#SVGID_189_);}
	.st291{clip-path:url(#SVGID_193_);}
	.st292{clip-path:url(#SVGID_197_);}
	.st293{clip-path:url(#SVGID_201_);}
	.st294{fill:url(#SVGID_202_);}
	.st295{fill-rule:evenodd;clip-rule:evenodd;fill:#660F31;}
	.st296{fill-rule:evenodd;clip-rule:evenodd;fill:#E7236A;}
	.st297{fill:url(#SVGID_203_);}
	.st298{fill:url(#Body_-_Frame_1_);}
	.st299{fill:#1F2025;}
	.st300{clip-path:url(#_x5B_YOUR_SCREEN_HERE_x5D__3_);}
	.st301{opacity:0.95;fill:#1A1B25;}
	.st302{fill:#1A1B25;}
	.st303{fill:url(#SVGID_204_);}
	.st304{fill:url(#SVGID_205_);}
	.st305{fill:url(#SVGID_206_);}
	.st306{fill:url(#SVGID_207_);}
	.st307{fill:url(#SVGID_208_);}
	.st308{fill:url(#SVGID_209_);}
	.st309{opacity:0.9;}
	.st310{fill:url(#SVGID_210_);}
	.st311{clip-path:url(#SVGID_212_);}
	.st312{fill:#FFFFFF;stroke:#FFFFFF;stroke-width:0.1281;stroke-miterlimit:10;}
	.st313{fill-rule:evenodd;clip-rule:evenodd;fill:#878787;}
	.st314{fill:#878787;}
	.st315{fill:none;stroke:#FFFFFF;stroke-width:0.2049;stroke-miterlimit:10;}
	.st316{fill:#95C11F;}
	.st317{fill:#36A9E1;}
	.st318{opacity:0.75;fill:#1A1B25;}
	.st319{fill:url(#SVGID_213_);}
	.st320{opacity:0.37;}
	.st321{fill:#352255;}
	.st322{fill:url(#SVGID_214_);}
	.st323{fill:url(#SVGID_215_);}
	.st324{fill:url(#SVGID_216_);}
	.st325{fill:url(#SVGID_217_);}
	.st326{fill:url(#SVGID_218_);}
	.st327{fill:url(#SVGID_219_);}
	.st328{fill:url(#SVGID_220_);}
	.st329{fill:url(#SVGID_221_);}
	.st330{opacity:0.4;fill:url(#SVGID_222_);}
	.st331{opacity:0.48;fill:url(#SVGID_223_);}
	.st332{fill:url(#SVGID_224_);}
	.st333{fill:url(#SVGID_225_);}
	.st334{opacity:0.4;fill:url(#SVGID_226_);}
	.st335{opacity:0.48;fill:url(#SVGID_227_);}
	.st336{fill:url(#SVGID_228_);}
	.st337{fill:url(#SVGID_229_);}
	.st338{opacity:0.4;fill:url(#SVGID_230_);}
	.st339{opacity:0.48;fill:url(#SVGID_231_);}
	.st340{fill:url(#SVGID_232_);}
	.st341{fill:url(#SVGID_233_);}
	.st342{opacity:0.4;fill:url(#SVGID_234_);}
	.st343{opacity:0.48;fill:url(#SVGID_235_);}
	.st344{fill:url(#SVGID_236_);}
	.st345{fill:#9D9D9C;}
	.st346{fill:none;stroke:#FFFFFF;stroke-width:0.314;stroke-miterlimit:10;stroke-dasharray:1.2562;}
	.st347{opacity:0.4;fill:url(#SVGID_237_);}
	.st348{opacity:0.48;fill:url(#SVGID_238_);}
	.st349{fill:url(#SVGID_239_);}
	.st350{opacity:0.4;fill:url(#SVGID_240_);}
	.st351{opacity:0.48;fill:url(#SVGID_241_);}
	.st352{fill:url(#SVGID_242_);}
	.st353{opacity:0.4;fill:url(#SVGID_243_);}
	.st354{opacity:0.48;fill:url(#SVGID_244_);}
	.st355{fill:url(#SVGID_245_);}
	.st356{opacity:0.4;fill:url(#SVGID_246_);}
	.st357{opacity:0.48;fill:url(#SVGID_247_);}
	.st358{fill:url(#SVGID_248_);}
	.st359{fill:url(#SVGID_249_);}
	.st360{fill:#44B179;}
	.st361{fill:#D92A47;}
	.st362{fill:none;stroke:#FFFFFF;stroke-width:0.6579;stroke-miterlimit:10;}
	.st363{fill:url(#SVGID_250_);}
	.st364{fill:url(#SVGID_251_);}
	.st365{fill:url(#SVGID_252_);}
	.st366{fill:url(#SVGID_253_);}
	.st367{fill:#C5195F;}
	.st368{fill:#E7236A;}
	.st369{fill:url(#SVGID_254_);}
	.st370{fill:url(#SVGID_255_);}
</style>
<g id="Layer_1">
	<g>
		<g>
			<g>
				<path class="st30" d="M5.55,24.86L4.6,27.84H3.77l-0.48-1.59l-0.48,1.59H1.98l-0.95-2.98h0.95l0.43,1.59l0.46-1.59h0.83
					l0.46,1.59l0.43-1.59H5.55z"/>
				<path class="st30" d="M8.77,26.01v1.83H7.88v-1.7c0-0.37-0.23-0.54-0.52-0.54c-0.33,0-0.55,0.19-0.55,0.61v1.62H5.91v-4.17H6.8
					v1.47c0.16-0.22,0.46-0.36,0.85-0.36C8.26,24.78,8.77,25.21,8.77,26.01z"/>
				<path class="st30" d="M10.89,27.13c0.24,0,0.45-0.1,0.57-0.23l0.71,0.41c-0.29,0.4-0.73,0.61-1.3,0.61
					c-1.02,0-1.65-0.68-1.65-1.57s0.64-1.57,1.58-1.57c0.87,0,1.51,0.67,1.51,1.57c0,0.12-0.01,0.24-0.04,0.36h-2.11
					C10.29,27.02,10.57,27.13,10.89,27.13z M11.44,26.04c-0.1-0.35-0.36-0.47-0.63-0.47c-0.34,0-0.56,0.17-0.65,0.47H11.44z"/>
				<path class="st30" d="M15.69,26.01v1.83H14.8v-1.7c0-0.37-0.23-0.54-0.52-0.54c-0.33,0-0.55,0.19-0.55,0.61v1.62h-0.89v-2.98
					h0.89v0.28c0.16-0.22,0.46-0.36,0.85-0.36C15.18,24.78,15.69,25.21,15.69,26.01z"/>
				<path class="st30" d="M17.71,24.07c0-0.29,0.24-0.54,0.54-0.54c0.29,0,0.54,0.24,0.54,0.54s-0.24,0.54-0.54,0.54
					C17.95,24.6,17.71,24.36,17.71,24.07z M17.8,24.86h0.89v2.98H17.8V24.86z"/>
				<path class="st30" d="M20.48,25.72v1.05c0,0.26,0.22,0.28,0.61,0.26v0.81c-1.17,0.12-1.51-0.23-1.51-1.07v-1.05h-0.48v-0.86
					h0.48V24.3l0.89-0.27v0.83h0.61v0.86H20.48z"/>
				<path class="st30" d="M23,26.35c0-0.89,0.67-1.57,1.58-1.57c0.58,0,1.09,0.3,1.35,0.76l-0.78,0.45
					c-0.1-0.21-0.32-0.33-0.58-0.33c-0.39,0-0.67,0.28-0.67,0.69s0.29,0.69,0.67,0.69c0.26,0,0.48-0.12,0.58-0.33l0.78,0.45
					c-0.26,0.46-0.76,0.77-1.35,0.77C23.67,27.92,23,27.24,23,26.35z"/>
				<path class="st30" d="M26.07,26.35c0-0.89,0.7-1.57,1.58-1.57c0.88,0,1.58,0.68,1.58,1.57s-0.7,1.57-1.58,1.57
					C26.77,27.92,26.07,27.24,26.07,26.35z M28.33,26.35c0-0.42-0.3-0.7-0.68-0.7s-0.68,0.28-0.68,0.7s0.3,0.7,0.68,0.7
					S28.33,26.77,28.33,26.35z"/>
				<path class="st30" d="M34.19,26.01v1.83H33.3v-1.75c0-0.3-0.14-0.49-0.43-0.49c-0.3,0-0.46,0.21-0.46,0.56v1.68h-0.89v-1.75
					c0-0.3-0.14-0.49-0.43-0.49c-0.3,0-0.46,0.21-0.46,0.56v1.68h-0.89v-2.98h0.89v0.27c0.14-0.2,0.4-0.36,0.8-0.36
					c0.35,0,0.61,0.14,0.78,0.39c0.17-0.24,0.44-0.39,0.86-0.39C33.75,24.78,34.19,25.27,34.19,26.01z"/>
				<path class="st30" d="M36.32,27.13c0.24,0,0.45-0.1,0.57-0.23l0.71,0.41c-0.29,0.4-0.73,0.61-1.3,0.61
					c-1.02,0-1.65-0.68-1.65-1.57s0.64-1.57,1.58-1.57c0.87,0,1.51,0.67,1.51,1.57c0,0.12-0.01,0.24-0.04,0.36h-2.11
					C35.72,27.02,35.99,27.13,36.32,27.13z M36.87,26.04c-0.1-0.35-0.36-0.47-0.63-0.47c-0.34,0-0.57,0.17-0.65,0.47H36.87z"/>
				<path class="st30" d="M40.45,26.95c0,0.68-0.6,0.98-1.24,0.98c-0.6,0-1.05-0.23-1.28-0.71l0.77-0.44
					c0.08,0.23,0.24,0.35,0.51,0.35c0.21,0,0.32-0.07,0.32-0.18c0-0.33-1.46-0.15-1.46-1.18c0-0.65,0.55-0.98,1.17-0.98
					c0.48,0,0.91,0.21,1.16,0.64l-0.76,0.41c-0.08-0.15-0.2-0.26-0.4-0.26c-0.15,0-0.25,0.06-0.25,0.17
					C38.99,26.07,40.45,25.85,40.45,26.95z"/>
				<path class="st30" d="M43.55,25.72v1.05c0,0.26,0.22,0.28,0.61,0.26v0.81c-1.17,0.12-1.51-0.23-1.51-1.07v-1.05h-0.48v-0.86
					h0.48V24.3l0.89-0.27v0.83h0.61v0.86H43.55z"/>
				<path class="st30" d="M44.46,26.35c0-0.89,0.7-1.57,1.58-1.57c0.88,0,1.58,0.68,1.58,1.57s-0.7,1.57-1.58,1.57
					C45.17,27.92,44.46,27.24,44.46,26.35z M46.72,26.35c0-0.42-0.3-0.7-0.68-0.7c-0.39,0-0.68,0.28-0.68,0.7s0.3,0.7,0.68,0.7
					C46.43,27.05,46.72,26.77,46.72,26.35z"/>
				<path class="st30" d="M51.92,26.95c0,0.68-0.6,0.98-1.24,0.98c-0.6,0-1.05-0.23-1.28-0.71l0.77-0.44
					c0.08,0.23,0.24,0.35,0.51,0.35c0.21,0,0.32-0.07,0.32-0.18c0-0.33-1.46-0.15-1.46-1.18c0-0.65,0.55-0.98,1.17-0.98
					c0.48,0,0.91,0.21,1.16,0.64l-0.76,0.41c-0.08-0.15-0.2-0.26-0.4-0.26c-0.15,0-0.25,0.06-0.25,0.17
					C50.46,26.07,51.92,25.85,51.92,26.95z"/>
				<path class="st30" d="M52.19,26.35c0-0.89,0.7-1.57,1.58-1.57c0.88,0,1.58,0.68,1.58,1.57s-0.7,1.57-1.58,1.57
					C52.89,27.92,52.19,27.24,52.19,26.35z M54.45,26.35c0-0.42-0.3-0.7-0.68-0.7c-0.39,0-0.68,0.28-0.68,0.7s0.3,0.7,0.68,0.7
					C54.16,27.05,54.45,26.77,54.45,26.35z"/>
				<path class="st30" d="M55.85,23.5h0.89v4.34h-0.89V23.5z"/>
				<path class="st30" d="M60.46,24.86v2.98h-0.89v-0.28c-0.2,0.23-0.49,0.36-0.89,0.36c-0.78,0-1.42-0.68-1.42-1.57
					s0.64-1.57,1.42-1.57c0.4,0,0.69,0.14,0.89,0.36v-0.28H60.46z M59.56,26.35c0-0.45-0.3-0.73-0.71-0.73s-0.71,0.28-0.71,0.73
					s0.3,0.73,0.71,0.73S59.56,26.8,59.56,26.35z"/>
				<path class="st30" d="M62.9,24.8v1.01c-0.37-0.06-0.89,0.09-0.89,0.68v1.34h-0.89v-2.98h0.89v0.53
					C62.12,24.99,62.52,24.8,62.9,24.8z"/>
				<path class="st30" d="M63.55,28.67h-0.71l0.24-1.76h0.95L63.55,28.67z"/>
				<path class="st84" d="M70.34,24.86l-0.95,2.98h-0.83l-0.48-1.59l-0.48,1.59h-0.83l-0.95-2.98h0.95l0.43,1.59l0.46-1.59h0.83
					l0.46,1.59l0.43-1.59H70.34z"/>
				<path class="st84" d="M72.09,27.13c0.24,0,0.45-0.1,0.57-0.23l0.71,0.41c-0.29,0.4-0.73,0.61-1.3,0.61
					c-1.02,0-1.65-0.68-1.65-1.57s0.64-1.57,1.58-1.57c0.87,0,1.51,0.67,1.51,1.57c0,0.12-0.01,0.24-0.04,0.36h-2.11
					C71.49,27.02,71.77,27.13,72.09,27.13z M72.64,26.04c-0.1-0.35-0.36-0.47-0.63-0.47c-0.34,0-0.57,0.17-0.65,0.47H72.64z"/>
				<path class="st84" d="M74.33,25.43h-0.71l0.24-1.76h0.95L74.33,25.43z"/>
				<path class="st84" d="M77.19,24.8v1.01c-0.37-0.06-0.89,0.09-0.89,0.68v1.34H75.4v-2.98h0.89v0.53
					C76.42,24.99,76.81,24.8,77.19,24.8z"/>
				<path class="st84" d="M79.03,27.13c0.24,0,0.45-0.1,0.57-0.23l0.71,0.41c-0.29,0.4-0.73,0.61-1.3,0.61
					c-1.02,0-1.65-0.68-1.65-1.57s0.64-1.57,1.58-1.57c0.87,0,1.51,0.67,1.51,1.57c0,0.12-0.01,0.24-0.04,0.36h-2.11
					C78.43,27.02,78.7,27.13,79.03,27.13z M79.58,26.04c-0.1-0.35-0.36-0.47-0.63-0.47c-0.34,0-0.56,0.17-0.65,0.47H79.58z"/>
				<path class="st84" d="M85.2,27.84h-0.89v-2.12h-0.76v2.12h-0.89v-2.12h-0.4v-0.86h0.4c0-0.83,0.46-1.27,1.45-1.27
					c0.24,0,0.49,0.03,0.74,0.08v0.82c-0.27-0.03-0.52-0.05-0.74-0.05c-0.33,0-0.55,0.07-0.55,0.42h1.65V27.84z"/>
				<path class="st84" d="M87.64,24.8v1.01c-0.37-0.06-0.89,0.09-0.89,0.68v1.34h-0.89v-2.98h0.89v0.53
					C86.87,24.99,87.27,24.8,87.64,24.8z"/>
				<path class="st84" d="M90.28,26.95c0,0.68-0.6,0.98-1.24,0.98c-0.6,0-1.05-0.23-1.28-0.71l0.77-0.44
					c0.08,0.23,0.24,0.35,0.51,0.35c0.21,0,0.32-0.07,0.32-0.18c0-0.33-1.46-0.15-1.46-1.18c0-0.65,0.55-0.98,1.17-0.98
					c0.48,0,0.91,0.21,1.16,0.64l-0.76,0.41c-0.08-0.15-0.2-0.26-0.4-0.26c-0.15,0-0.25,0.06-0.25,0.17
					C88.81,26.07,90.28,25.85,90.28,26.95z"/>
				<path class="st84" d="M91.77,25.72v1.05c0,0.26,0.22,0.28,0.61,0.26v0.81c-1.17,0.12-1.51-0.23-1.51-1.07v-1.05H90.4v-0.86h0.48
					V24.3l0.89-0.27v0.83h0.61v0.86H91.77z"/>
			</g>
		</g>
		<g>
			<g>
				<path class="st30" d="M4.71,6.22h1.87v2.89H4.71v7.15H1.7V9.11H0.35V6.22H1.7c0-2.81,1.55-4.5,4.88-4.3v2.89
					C5.46,4.71,4.71,5.05,4.71,6.22z"/>
				<path class="st30" d="M7.39,3.53c0-0.98,0.82-1.81,1.81-1.81c0.98,0,1.81,0.82,1.81,1.81S10.18,5.33,9.2,5.33
					C8.21,5.33,7.39,4.51,7.39,3.53z M7.69,6.22h3.01v10.05H7.69V6.22z"/>
				<path class="st30" d="M18.95,6.02v3.42c-1.25-0.2-3.01,0.3-3.01,2.29v4.54h-3.01V6.22h3.01v1.79
					C16.33,6.66,17.68,6.02,18.95,6.02z"/>
				<path class="st30" d="M27.85,13.25c0,2.31-2.01,3.3-4.18,3.3c-2.01,0-3.54-0.76-4.32-2.39l2.61-1.49
					c0.26,0.76,0.82,1.19,1.71,1.19c0.72,0,1.08-0.22,1.08-0.62c0-1.1-4.94-0.52-4.94-4c0-2.19,1.85-3.3,3.94-3.3
					c1.63,0,3.08,0.72,3.92,2.15L25.1,9.47c-0.28-0.52-0.68-0.88-1.35-0.88c-0.52,0-0.84,0.2-0.84,0.56
					C22.91,10.3,27.85,9.53,27.85,13.25z"/>
				<path class="st30" d="M32.88,9.11v3.56c0,0.86,0.74,0.94,2.07,0.86v2.73c-3.94,0.4-5.08-0.78-5.08-3.6V9.11h-1.61V6.22h1.61
					V4.31l3.01-0.9v2.81h2.07v2.89H32.88z"/>
				<path class="st84" d="M47.21,14.01H45.8v2.25h-3.26v-2.25h-6.39v-2.97l4.48-8.84h3.46l-4.48,8.84h2.93V8.03h3.26v3.01h1.41
					V14.01z"/>
				<path class="st30" d="M56.31,13.25c0,2.31-2.01,3.3-4.18,3.3c-2.01,0-3.54-0.76-4.32-2.39l2.61-1.49
					c0.26,0.76,0.82,1.19,1.71,1.19c0.72,0,1.08-0.22,1.08-0.62c0-1.1-4.94-0.52-4.94-4c0-2.19,1.85-3.3,3.94-3.3
					c1.63,0,3.08,0.72,3.92,2.15l-2.57,1.39c-0.28-0.52-0.68-0.88-1.35-0.88c-0.52,0-0.84,0.2-0.84,0.56
					C51.37,10.3,56.31,9.53,56.31,13.25z"/>
				<path class="st30" d="M57.22,11.24c0-2.99,2.37-5.31,5.33-5.31s5.33,2.31,5.33,5.31s-2.37,5.31-5.33,5.31
					S57.22,14.24,57.22,11.24z M64.86,11.24c0-1.43-1-2.37-2.31-2.37s-2.31,0.94-2.31,2.37s1,2.37,2.31,2.37
					S64.86,12.67,64.86,11.24z"/>
				<path class="st30" d="M69.59,1.6h3.01v14.67h-3.01V1.6z"/>
				<path class="st30" d="M85.12,6.22v10.05h-3.01v-0.94c-0.66,0.76-1.65,1.23-2.99,1.23c-2.63,0-4.8-2.31-4.8-5.31
					s2.17-5.31,4.8-5.31c1.35,0,2.33,0.46,2.99,1.23V6.22H85.12z M82.11,11.24c0-1.51-1-2.45-2.39-2.45s-2.39,0.94-2.39,2.45
					s1,2.45,2.39,2.45S82.11,12.75,82.11,11.24z"/>
				<path class="st30" d="M93.36,6.02v3.42c-1.25-0.2-3.01,0.3-3.01,2.29v4.54h-3.01V6.22h3.01v1.79
					C90.75,6.66,92.1,6.02,93.36,6.02z"/>
			</g>
		</g>
	</g>
</g>
<g id="Layer_2">
</g>
</svg>
